<?xml version="1.0" encoding="UTF-8"?><!DOCTYPE svg PUBLIC "-//W3C//DTD SVG 1.1//EN" "http://www.w3.org/Graphics/SVG/1.1/DTD/svg11.dtd"><svg xmlns="http://www.w3.org/2000/svg" xmlns:xlink="http://www.w3.org/1999/xlink" version="1.1" id="Layer_1" x="0px" y="0px" width="512px" height="512px" viewBox="0 0 512 512" xml:space="preserve"><path d="M170.718 216.482L141.6 245.6l93.6 93.6 208-208-29.118-29.118L235.2 279.918l-64.482-63.436zM422.4 256c0 91.518-74.883 166.4-166.4 166.4S89.6 347.518 89.6 256 164.482 89.6 256 89.6c15.6 0 31.2 2.082 45.764 6.241L334 63.6C310.082 53.2 284.082 48 256 48 141.6 48 48 141.6 48 256s93.6 208 208 208 208-93.6 208-208h-41.6z"/><metadata><rdf:RDF xmlns:rdf="http://www.w3.org/1999/02/22-rdf-syntax-ns#" xmlns:rdfs="http://www.w3.org/2000/01/rdf-schema#" xmlns:dc="http://purl.org/dc/elements/1.1/"><rdf:Description about="https://iconscout.com/legal#licenses" dc:title="android,checkmark,circle" dc:description="android,checkmark,circle" dc:publisher="Iconscout" dc:date="2017-09-24" dc:format="image/svg+xml" dc:language="en"><dc:creator><rdf:Bag><rdf:li>Benjamin J Sperry</rdf:li></rdf:Bag></dc:creator></rdf:Description></rdf:RDF></metadata></svg>