<?xml version="1.0" encoding="utf-8"?>
<!-- Svg Vector Icons : http://www.onlinewebfonts.com/icon -->
<!DOCTYPE svg PUBLIC "-//W3C//DTD SVG 1.1//EN" "http://www.w3.org/Graphics/SVG/1.1/DTD/svg11.dtd">
<svg version="1.1" xmlns="http://www.w3.org/2000/svg" xmlns:xlink="http://www.w3.org/1999/xlink" x="0px" y="0px" viewBox="0 0 1000 1000" enable-background="new 0 0 1000 1000" xml:space="preserve">
<metadata> Svg Vector Icons : http://www.onlinewebfonts.com/icon </metadata>
<g><g><path d="M963.9,10H36.1C21.7,10,10,21.7,10,36.1v927.9c0,14.4,11.7,26.1,26.1,26.1h927.9c14.4,0,26.1-11.7,26.1-26.1V36.1C990,21.7,978.3,10,963.9,10z M694.8,524.7L405.4,752.4c-5.6,4.4-12.5,6.7-19.4,6.7c-4.7,0-9.4-1-13.7-3.2c-10.8-5.3-17.7-16.2-17.7-28.2V272.3c0-12,6.9-23,17.7-28.2c10.8-5.2,23.7-3.9,33.1,3.6l289.5,227.7c7.6,5.9,12,15,12,24.6C706.8,509.6,702.4,518.7,694.8,524.7z"/></g><g></g><g></g><g></g><g></g><g></g><g></g><g></g><g></g><g></g><g></g><g></g><g></g><g></g><g></g><g></g></g>
</svg>